%
M48
M72
T01C0.01181
T02C0.01969
T03C0.03200
T04C0.03600
T05C0.04000
T06C0.04400
T07C0.04724
T08C0.09000
T09C0.11811
%
T01
X36433Y93520
X36433Y215567
X331709Y215567
X331709Y93520
T02
X322850Y138008
X270291Y132299
X260252Y102969
X242929Y76394
X223638Y70882
X152969Y70882
X144701Y70882
X136433Y70882
X142142Y207496
X32496Y236630
X305528Y205921
X319504Y256315
T03
X291433Y241157
X281433Y241157
X304110Y192575
X314110Y192575
X324110Y192575
X334110Y192575
X334110Y162575
X324110Y162575
X314110Y162575
X304110Y162575
X294937Y143559
X284937Y143559
X274937Y143559
X264937Y143559
X254937Y143559
X244937Y143559
X234937Y143559
X224937Y143559
X214937Y143559
X204937Y143559
X194937Y143559
X184937Y143559
X174937Y143559
X164937Y143559
X164937Y113559
X174937Y113559
X184937Y113559
X194937Y113559
X204937Y113559
X214937Y113559
X224937Y113559
X234937Y113559
X244937Y113559
X254937Y113559
X264937Y113559
X274937Y113559
X284937Y113559
X294937Y113559
X245094Y155055
X245094Y165055
X158165Y238795
X148165Y238795
X132102Y252858
X132102Y266858
X91472Y96118
X81472Y96118
X71472Y96118
T04
X74228Y137806
X74228Y163406
T05
X16748Y162339
X16748Y172339
X16748Y182339
X16748Y192339
X16748Y202339
X16748Y212339
X16748Y222339
X16748Y232339
X54209Y231157
X54209Y251157
X98047Y251433
X98047Y241433
X98047Y231433
X98047Y221433
X111209Y231157
X111209Y241157
X111209Y251157
X16748Y152339
X16748Y142339
X16748Y132339
X16748Y122339
X16748Y112339
X16748Y102339
X16748Y92339
X16748Y82339
X16748Y72339
X16748Y62339
X16748Y52339
X16748Y42339
X56118Y10843
X66118Y10843
X76118Y10843
X86118Y10843
X96118Y10843
X106118Y10843
X116118Y10843
X126118Y10843
X136118Y10843
X146118Y10843
X156118Y10843
X166118Y10843
X176118Y10843
X186118Y10843
X196118Y10843
X206118Y10843
X216118Y10843
X226118Y10843
X236118Y10843
X246118Y10843
X250055Y93520
X240055Y93520
X230055Y93520
X220055Y93520
X210055Y93520
X200055Y93520
X190055Y93520
X180055Y93520
X170055Y93520
X160055Y93520
X260055Y93520
X270055Y93520
X280055Y93520
X290055Y93520
X300055Y93520
X310055Y93520
X333874Y110449
X333874Y120449
X333874Y130449
X333874Y140449
X333874Y150449
T06
X313717Y264780
X273717Y264780
T07
X276000Y212417
X256315Y212417
X236630Y212417
X216945Y212417
X295685Y212417
X315370Y212417
T08
X81709Y215157
X81709Y267157
T09
X10843Y10843
X10843Y266748
X357299Y266748
X357299Y10843
M30
