G75*
%MOIN*%
%OFA0B0*%
%FSLAX25Y25*%
%IPPOS*%
%LPD*%
%AMOC8*
5,1,8,0,0,1.08239X$1,22.5*
%
%ADD10C,0.00000*%
D10*
X0001000Y0002181D02*
X0001000Y0275409D01*
X0001002Y0275475D01*
X0001007Y0275541D01*
X0001017Y0275607D01*
X0001030Y0275672D01*
X0001046Y0275736D01*
X0001066Y0275799D01*
X0001090Y0275861D01*
X0001117Y0275921D01*
X0001147Y0275980D01*
X0001181Y0276037D01*
X0001218Y0276092D01*
X0001258Y0276145D01*
X0001300Y0276196D01*
X0001346Y0276244D01*
X0001394Y0276290D01*
X0001445Y0276332D01*
X0001498Y0276372D01*
X0001553Y0276409D01*
X0001610Y0276443D01*
X0001669Y0276473D01*
X0001729Y0276500D01*
X0001791Y0276524D01*
X0001854Y0276544D01*
X0001918Y0276560D01*
X0001983Y0276573D01*
X0002049Y0276583D01*
X0002115Y0276588D01*
X0002181Y0276590D01*
X0002181Y0276591D02*
X0365961Y0276591D01*
X0365961Y0276590D02*
X0366027Y0276588D01*
X0366093Y0276583D01*
X0366159Y0276573D01*
X0366224Y0276560D01*
X0366288Y0276544D01*
X0366351Y0276524D01*
X0366413Y0276500D01*
X0366473Y0276473D01*
X0366532Y0276443D01*
X0366589Y0276409D01*
X0366644Y0276372D01*
X0366697Y0276332D01*
X0366748Y0276290D01*
X0366796Y0276244D01*
X0366842Y0276196D01*
X0366884Y0276145D01*
X0366924Y0276092D01*
X0366961Y0276037D01*
X0366995Y0275980D01*
X0367025Y0275921D01*
X0367052Y0275861D01*
X0367076Y0275799D01*
X0367096Y0275736D01*
X0367112Y0275672D01*
X0367125Y0275607D01*
X0367135Y0275541D01*
X0367140Y0275475D01*
X0367142Y0275409D01*
X0367142Y0002181D01*
X0367140Y0002115D01*
X0367135Y0002049D01*
X0367125Y0001983D01*
X0367112Y0001918D01*
X0367096Y0001854D01*
X0367076Y0001791D01*
X0367052Y0001729D01*
X0367025Y0001669D01*
X0366995Y0001610D01*
X0366961Y0001553D01*
X0366924Y0001498D01*
X0366884Y0001445D01*
X0366842Y0001394D01*
X0366796Y0001346D01*
X0366748Y0001300D01*
X0366697Y0001258D01*
X0366644Y0001218D01*
X0366589Y0001181D01*
X0366532Y0001147D01*
X0366473Y0001117D01*
X0366413Y0001090D01*
X0366351Y0001066D01*
X0366288Y0001046D01*
X0366224Y0001030D01*
X0366159Y0001017D01*
X0366093Y0001007D01*
X0366027Y0001002D01*
X0365961Y0001000D01*
X0002181Y0001000D01*
X0002115Y0001002D01*
X0002049Y0001007D01*
X0001983Y0001017D01*
X0001918Y0001030D01*
X0001854Y0001046D01*
X0001791Y0001066D01*
X0001729Y0001090D01*
X0001669Y0001117D01*
X0001610Y0001147D01*
X0001553Y0001181D01*
X0001498Y0001218D01*
X0001445Y0001258D01*
X0001394Y0001300D01*
X0001346Y0001346D01*
X0001300Y0001394D01*
X0001258Y0001445D01*
X0001218Y0001498D01*
X0001181Y0001553D01*
X0001147Y0001610D01*
X0001117Y0001669D01*
X0001090Y0001729D01*
X0001066Y0001791D01*
X0001046Y0001854D01*
X0001030Y0001918D01*
X0001017Y0001983D01*
X0001007Y0002049D01*
X0001002Y0002115D01*
X0001000Y0002181D01*
X0035842Y0093520D02*
X0035844Y0093568D01*
X0035850Y0093616D01*
X0035860Y0093663D01*
X0035873Y0093709D01*
X0035891Y0093754D01*
X0035911Y0093798D01*
X0035936Y0093840D01*
X0035964Y0093879D01*
X0035994Y0093916D01*
X0036028Y0093950D01*
X0036065Y0093982D01*
X0036103Y0094011D01*
X0036144Y0094036D01*
X0036187Y0094058D01*
X0036232Y0094076D01*
X0036278Y0094090D01*
X0036325Y0094101D01*
X0036373Y0094108D01*
X0036421Y0094111D01*
X0036469Y0094110D01*
X0036517Y0094105D01*
X0036565Y0094096D01*
X0036611Y0094084D01*
X0036656Y0094067D01*
X0036700Y0094047D01*
X0036742Y0094024D01*
X0036782Y0093997D01*
X0036820Y0093967D01*
X0036855Y0093934D01*
X0036887Y0093898D01*
X0036917Y0093860D01*
X0036943Y0093819D01*
X0036965Y0093776D01*
X0036985Y0093732D01*
X0037000Y0093687D01*
X0037012Y0093640D01*
X0037020Y0093592D01*
X0037024Y0093544D01*
X0037024Y0093496D01*
X0037020Y0093448D01*
X0037012Y0093400D01*
X0037000Y0093353D01*
X0036985Y0093308D01*
X0036965Y0093264D01*
X0036943Y0093221D01*
X0036917Y0093180D01*
X0036887Y0093142D01*
X0036855Y0093106D01*
X0036820Y0093073D01*
X0036782Y0093043D01*
X0036742Y0093016D01*
X0036700Y0092993D01*
X0036656Y0092973D01*
X0036611Y0092956D01*
X0036565Y0092944D01*
X0036517Y0092935D01*
X0036469Y0092930D01*
X0036421Y0092929D01*
X0036373Y0092932D01*
X0036325Y0092939D01*
X0036278Y0092950D01*
X0036232Y0092964D01*
X0036187Y0092982D01*
X0036144Y0093004D01*
X0036103Y0093029D01*
X0036065Y0093058D01*
X0036028Y0093090D01*
X0035994Y0093124D01*
X0035964Y0093161D01*
X0035936Y0093200D01*
X0035911Y0093242D01*
X0035891Y0093286D01*
X0035873Y0093331D01*
X0035860Y0093377D01*
X0035850Y0093424D01*
X0035844Y0093472D01*
X0035842Y0093520D01*
X0035842Y0215567D02*
X0035844Y0215615D01*
X0035850Y0215663D01*
X0035860Y0215710D01*
X0035873Y0215756D01*
X0035891Y0215801D01*
X0035911Y0215845D01*
X0035936Y0215887D01*
X0035964Y0215926D01*
X0035994Y0215963D01*
X0036028Y0215997D01*
X0036065Y0216029D01*
X0036103Y0216058D01*
X0036144Y0216083D01*
X0036187Y0216105D01*
X0036232Y0216123D01*
X0036278Y0216137D01*
X0036325Y0216148D01*
X0036373Y0216155D01*
X0036421Y0216158D01*
X0036469Y0216157D01*
X0036517Y0216152D01*
X0036565Y0216143D01*
X0036611Y0216131D01*
X0036656Y0216114D01*
X0036700Y0216094D01*
X0036742Y0216071D01*
X0036782Y0216044D01*
X0036820Y0216014D01*
X0036855Y0215981D01*
X0036887Y0215945D01*
X0036917Y0215907D01*
X0036943Y0215866D01*
X0036965Y0215823D01*
X0036985Y0215779D01*
X0037000Y0215734D01*
X0037012Y0215687D01*
X0037020Y0215639D01*
X0037024Y0215591D01*
X0037024Y0215543D01*
X0037020Y0215495D01*
X0037012Y0215447D01*
X0037000Y0215400D01*
X0036985Y0215355D01*
X0036965Y0215311D01*
X0036943Y0215268D01*
X0036917Y0215227D01*
X0036887Y0215189D01*
X0036855Y0215153D01*
X0036820Y0215120D01*
X0036782Y0215090D01*
X0036742Y0215063D01*
X0036700Y0215040D01*
X0036656Y0215020D01*
X0036611Y0215003D01*
X0036565Y0214991D01*
X0036517Y0214982D01*
X0036469Y0214977D01*
X0036421Y0214976D01*
X0036373Y0214979D01*
X0036325Y0214986D01*
X0036278Y0214997D01*
X0036232Y0215011D01*
X0036187Y0215029D01*
X0036144Y0215051D01*
X0036103Y0215076D01*
X0036065Y0215105D01*
X0036028Y0215137D01*
X0035994Y0215171D01*
X0035964Y0215208D01*
X0035936Y0215247D01*
X0035911Y0215289D01*
X0035891Y0215333D01*
X0035873Y0215378D01*
X0035860Y0215424D01*
X0035850Y0215471D01*
X0035844Y0215519D01*
X0035842Y0215567D01*
X0331118Y0215567D02*
X0331120Y0215615D01*
X0331126Y0215663D01*
X0331136Y0215710D01*
X0331149Y0215756D01*
X0331167Y0215801D01*
X0331187Y0215845D01*
X0331212Y0215887D01*
X0331240Y0215926D01*
X0331270Y0215963D01*
X0331304Y0215997D01*
X0331341Y0216029D01*
X0331379Y0216058D01*
X0331420Y0216083D01*
X0331463Y0216105D01*
X0331508Y0216123D01*
X0331554Y0216137D01*
X0331601Y0216148D01*
X0331649Y0216155D01*
X0331697Y0216158D01*
X0331745Y0216157D01*
X0331793Y0216152D01*
X0331841Y0216143D01*
X0331887Y0216131D01*
X0331932Y0216114D01*
X0331976Y0216094D01*
X0332018Y0216071D01*
X0332058Y0216044D01*
X0332096Y0216014D01*
X0332131Y0215981D01*
X0332163Y0215945D01*
X0332193Y0215907D01*
X0332219Y0215866D01*
X0332241Y0215823D01*
X0332261Y0215779D01*
X0332276Y0215734D01*
X0332288Y0215687D01*
X0332296Y0215639D01*
X0332300Y0215591D01*
X0332300Y0215543D01*
X0332296Y0215495D01*
X0332288Y0215447D01*
X0332276Y0215400D01*
X0332261Y0215355D01*
X0332241Y0215311D01*
X0332219Y0215268D01*
X0332193Y0215227D01*
X0332163Y0215189D01*
X0332131Y0215153D01*
X0332096Y0215120D01*
X0332058Y0215090D01*
X0332018Y0215063D01*
X0331976Y0215040D01*
X0331932Y0215020D01*
X0331887Y0215003D01*
X0331841Y0214991D01*
X0331793Y0214982D01*
X0331745Y0214977D01*
X0331697Y0214976D01*
X0331649Y0214979D01*
X0331601Y0214986D01*
X0331554Y0214997D01*
X0331508Y0215011D01*
X0331463Y0215029D01*
X0331420Y0215051D01*
X0331379Y0215076D01*
X0331341Y0215105D01*
X0331304Y0215137D01*
X0331270Y0215171D01*
X0331240Y0215208D01*
X0331212Y0215247D01*
X0331187Y0215289D01*
X0331167Y0215333D01*
X0331149Y0215378D01*
X0331136Y0215424D01*
X0331126Y0215471D01*
X0331120Y0215519D01*
X0331118Y0215567D01*
X0331118Y0093520D02*
X0331120Y0093568D01*
X0331126Y0093616D01*
X0331136Y0093663D01*
X0331149Y0093709D01*
X0331167Y0093754D01*
X0331187Y0093798D01*
X0331212Y0093840D01*
X0331240Y0093879D01*
X0331270Y0093916D01*
X0331304Y0093950D01*
X0331341Y0093982D01*
X0331379Y0094011D01*
X0331420Y0094036D01*
X0331463Y0094058D01*
X0331508Y0094076D01*
X0331554Y0094090D01*
X0331601Y0094101D01*
X0331649Y0094108D01*
X0331697Y0094111D01*
X0331745Y0094110D01*
X0331793Y0094105D01*
X0331841Y0094096D01*
X0331887Y0094084D01*
X0331932Y0094067D01*
X0331976Y0094047D01*
X0332018Y0094024D01*
X0332058Y0093997D01*
X0332096Y0093967D01*
X0332131Y0093934D01*
X0332163Y0093898D01*
X0332193Y0093860D01*
X0332219Y0093819D01*
X0332241Y0093776D01*
X0332261Y0093732D01*
X0332276Y0093687D01*
X0332288Y0093640D01*
X0332296Y0093592D01*
X0332300Y0093544D01*
X0332300Y0093496D01*
X0332296Y0093448D01*
X0332288Y0093400D01*
X0332276Y0093353D01*
X0332261Y0093308D01*
X0332241Y0093264D01*
X0332219Y0093221D01*
X0332193Y0093180D01*
X0332163Y0093142D01*
X0332131Y0093106D01*
X0332096Y0093073D01*
X0332058Y0093043D01*
X0332018Y0093016D01*
X0331976Y0092993D01*
X0331932Y0092973D01*
X0331887Y0092956D01*
X0331841Y0092944D01*
X0331793Y0092935D01*
X0331745Y0092930D01*
X0331697Y0092929D01*
X0331649Y0092932D01*
X0331601Y0092939D01*
X0331554Y0092950D01*
X0331508Y0092964D01*
X0331463Y0092982D01*
X0331420Y0093004D01*
X0331379Y0093029D01*
X0331341Y0093058D01*
X0331304Y0093090D01*
X0331270Y0093124D01*
X0331240Y0093161D01*
X0331212Y0093200D01*
X0331187Y0093242D01*
X0331167Y0093286D01*
X0331149Y0093331D01*
X0331136Y0093377D01*
X0331126Y0093424D01*
X0331120Y0093472D01*
X0331118Y0093520D01*
M02*
