G75*
%MOIN*%
%OFA0B0*%
%FSLAX25Y25*%
%IPPOS*%
%LPD*%
%AMOC8*
5,1,8,0,0,1.08239X$1,22.5*
%
%ADD10C,0.00800*%
%ADD11C,0.00000*%
%ADD12C,0.01100*%
%ADD13C,0.01300*%
%ADD14C,0.00500*%
D10*
X0214904Y0182667D02*
X0214904Y0184769D01*
X0215605Y0185469D01*
X0216305Y0185469D01*
X0217006Y0184769D01*
X0217006Y0182667D01*
X0214904Y0182667D02*
X0219108Y0182667D01*
X0219108Y0184769D01*
X0218407Y0185469D01*
X0217706Y0185469D01*
X0217006Y0184769D01*
X0215605Y0187271D02*
X0214904Y0187971D01*
X0214904Y0189373D01*
X0215605Y0190073D01*
X0219108Y0190073D01*
X0219108Y0191875D02*
X0219108Y0194677D01*
X0218407Y0194677D01*
X0215605Y0191875D01*
X0214904Y0191875D01*
X0214904Y0194677D01*
X0215605Y0187271D02*
X0219108Y0187271D01*
X0234282Y0187074D02*
X0234282Y0189876D01*
X0234983Y0191678D02*
X0239186Y0191678D01*
X0237084Y0191678D02*
X0237084Y0194480D01*
X0234983Y0194480D02*
X0239186Y0194480D01*
X0238486Y0185272D02*
X0239186Y0184572D01*
X0239186Y0182470D01*
X0234983Y0182470D01*
X0234983Y0184572D01*
X0235683Y0185272D01*
X0238486Y0185272D01*
X0253652Y0187106D02*
X0253652Y0189909D01*
X0254353Y0191710D02*
X0254353Y0194513D01*
X0254353Y0191710D02*
X0258556Y0191710D01*
X0257856Y0185305D02*
X0255053Y0185305D01*
X0254353Y0184604D01*
X0254353Y0182502D01*
X0258556Y0182502D01*
X0258556Y0184604D01*
X0257856Y0185305D01*
X0274038Y0184604D02*
X0274038Y0183203D01*
X0274738Y0182502D01*
X0277541Y0182502D01*
X0278241Y0183203D01*
X0278241Y0184604D01*
X0277541Y0185305D01*
X0276140Y0185305D02*
X0276140Y0183904D01*
X0276140Y0185305D02*
X0274738Y0185305D01*
X0274038Y0184604D01*
X0274038Y0187106D02*
X0278241Y0187106D01*
X0274038Y0189909D01*
X0278241Y0189909D01*
X0278241Y0191710D02*
X0274038Y0191710D01*
X0274038Y0193812D01*
X0274738Y0194513D01*
X0277541Y0194513D01*
X0278241Y0193812D01*
X0278241Y0191710D01*
X0293920Y0192781D02*
X0298123Y0192781D01*
X0298123Y0189979D02*
X0293920Y0189979D01*
X0293920Y0188311D02*
X0293920Y0186909D01*
X0293920Y0187610D02*
X0298123Y0187610D01*
X0298123Y0186909D02*
X0298123Y0188311D01*
X0298123Y0189979D02*
X0293920Y0192781D01*
X0295321Y0185108D02*
X0293920Y0183707D01*
X0295321Y0182306D01*
X0298123Y0182306D01*
X0298123Y0185108D02*
X0295321Y0185108D01*
X0309456Y0185809D02*
X0309456Y0183006D01*
X0310156Y0182306D01*
X0312258Y0182306D01*
X0312258Y0186509D01*
X0310156Y0186509D01*
X0309456Y0185809D01*
X0314060Y0186509D02*
X0316862Y0186509D01*
X0316862Y0182306D01*
X0314060Y0182306D01*
X0315461Y0184407D02*
X0316862Y0184407D01*
X0318664Y0182306D02*
X0321466Y0182306D01*
X0321466Y0186509D01*
X0317818Y0229746D02*
X0313014Y0229746D01*
X0313014Y0232949D01*
X0313014Y0234903D02*
X0313014Y0238106D01*
X0313014Y0240059D02*
X0313014Y0242461D01*
X0313815Y0243262D01*
X0317018Y0243262D01*
X0317818Y0242461D01*
X0317818Y0240059D01*
X0313014Y0240059D01*
X0315416Y0236504D02*
X0315416Y0234903D01*
X0317818Y0234903D02*
X0313014Y0234903D01*
X0317818Y0234903D02*
X0317818Y0238106D01*
X0300495Y0238537D02*
X0295691Y0241740D01*
X0300495Y0241740D01*
X0300495Y0238537D02*
X0295691Y0238537D01*
X0295691Y0236701D02*
X0295691Y0235100D01*
X0295691Y0235900D02*
X0300495Y0235900D01*
X0300495Y0235100D02*
X0300495Y0236701D01*
X0300495Y0233146D02*
X0297293Y0233146D01*
X0295691Y0231545D01*
X0297293Y0229943D01*
X0300495Y0229943D01*
X0277267Y0230744D02*
X0276466Y0229943D01*
X0273264Y0229943D01*
X0272463Y0230744D01*
X0272463Y0232345D01*
X0273264Y0233146D01*
X0274865Y0233146D01*
X0274865Y0231545D01*
X0276466Y0233146D02*
X0277267Y0232345D01*
X0277267Y0230744D01*
X0277267Y0235100D02*
X0272463Y0235100D01*
X0272463Y0238302D02*
X0277267Y0238302D01*
X0277267Y0240256D02*
X0272463Y0240256D01*
X0272463Y0242658D01*
X0273264Y0243459D01*
X0276466Y0243459D01*
X0277267Y0242658D01*
X0277267Y0240256D01*
X0277267Y0235100D02*
X0272463Y0238302D01*
X0258960Y0240059D02*
X0254156Y0243262D01*
X0258960Y0243262D01*
X0258960Y0240059D02*
X0254156Y0240059D01*
X0254156Y0238106D02*
X0257359Y0238106D01*
X0258960Y0236504D01*
X0257359Y0234903D01*
X0254156Y0234903D01*
X0254957Y0232949D02*
X0254156Y0232148D01*
X0254156Y0230547D01*
X0254957Y0229746D01*
X0258159Y0229746D01*
X0258960Y0230547D01*
X0258960Y0232148D01*
X0258159Y0232949D01*
X0256558Y0234903D02*
X0256558Y0238106D01*
X0253355Y0245216D02*
X0253355Y0248418D01*
X0254156Y0250372D02*
X0254156Y0253575D01*
X0254156Y0250372D02*
X0258960Y0250372D01*
X0238684Y0250569D02*
X0233880Y0250569D01*
X0233080Y0248615D02*
X0233080Y0245412D01*
X0233880Y0243459D02*
X0238684Y0243459D01*
X0238684Y0240256D02*
X0233880Y0240256D01*
X0233880Y0238302D02*
X0237083Y0238302D01*
X0238684Y0236701D01*
X0237083Y0235100D01*
X0233880Y0235100D01*
X0234681Y0233146D02*
X0233880Y0232345D01*
X0233880Y0230744D01*
X0234681Y0229943D01*
X0237884Y0229943D01*
X0238684Y0230744D01*
X0238684Y0232345D01*
X0237884Y0233146D01*
X0236282Y0235100D02*
X0236282Y0238302D01*
X0238684Y0240256D02*
X0233880Y0243459D01*
X0236282Y0250569D02*
X0236282Y0253772D01*
X0238684Y0253772D02*
X0233880Y0253772D01*
X0218999Y0253575D02*
X0218999Y0250372D01*
X0214195Y0250372D01*
X0214195Y0253575D01*
X0214195Y0255528D02*
X0218999Y0255528D01*
X0218999Y0257930D01*
X0218199Y0258731D01*
X0216597Y0258731D01*
X0215797Y0257930D01*
X0215797Y0255528D01*
X0215797Y0257130D02*
X0214195Y0258731D01*
X0216597Y0251973D02*
X0216597Y0250372D01*
X0218199Y0248418D02*
X0214996Y0245216D01*
X0214195Y0245216D01*
X0214195Y0248418D01*
X0218199Y0248418D02*
X0218999Y0248418D01*
X0218999Y0245216D01*
X0218999Y0243262D02*
X0218199Y0243262D01*
X0214996Y0240059D01*
X0214195Y0240059D01*
X0214195Y0243262D01*
X0218999Y0243262D02*
X0218999Y0240059D01*
X0218999Y0238106D02*
X0214996Y0238106D01*
X0214195Y0237305D01*
X0214195Y0235704D01*
X0214996Y0234903D01*
X0218999Y0234903D01*
X0218199Y0232949D02*
X0217398Y0232949D01*
X0216597Y0232148D01*
X0216597Y0229746D01*
X0214195Y0229746D02*
X0214195Y0232148D01*
X0214996Y0232949D01*
X0215797Y0232949D01*
X0216597Y0232148D01*
X0218199Y0232949D02*
X0218999Y0232148D01*
X0218999Y0229746D01*
X0214195Y0229746D01*
X0089974Y0229727D02*
X0089173Y0228926D01*
X0085971Y0228926D01*
X0085170Y0229727D01*
X0085170Y0231328D01*
X0085971Y0232129D01*
X0089173Y0232129D01*
X0089974Y0231328D01*
X0089974Y0229727D01*
X0089173Y0226972D02*
X0087572Y0226972D01*
X0086771Y0226172D01*
X0086771Y0223770D01*
X0085170Y0223770D02*
X0089974Y0223770D01*
X0089974Y0226172D01*
X0089173Y0226972D01*
X0086771Y0225371D02*
X0085170Y0226972D01*
X0089974Y0234083D02*
X0089974Y0237285D01*
X0089974Y0235684D02*
X0085170Y0235684D01*
X0084369Y0239239D02*
X0084369Y0242442D01*
X0085170Y0244395D02*
X0085170Y0247598D01*
X0085170Y0249552D02*
X0089974Y0249552D01*
X0085170Y0252754D01*
X0089974Y0252754D01*
X0089173Y0254708D02*
X0085971Y0254708D01*
X0085170Y0255509D01*
X0085170Y0257110D01*
X0085971Y0257911D01*
X0089173Y0257911D02*
X0089974Y0257110D01*
X0089974Y0255509D01*
X0089173Y0254708D01*
X0089974Y0247598D02*
X0089974Y0244395D01*
X0085170Y0244395D01*
X0087572Y0244395D02*
X0087572Y0245997D01*
D11*
X0001000Y0275409D02*
X0001000Y0002181D01*
X0001002Y0002115D01*
X0001007Y0002049D01*
X0001017Y0001983D01*
X0001030Y0001918D01*
X0001046Y0001854D01*
X0001066Y0001791D01*
X0001090Y0001729D01*
X0001117Y0001669D01*
X0001147Y0001610D01*
X0001181Y0001553D01*
X0001218Y0001498D01*
X0001258Y0001445D01*
X0001300Y0001394D01*
X0001346Y0001346D01*
X0001394Y0001300D01*
X0001445Y0001258D01*
X0001498Y0001218D01*
X0001553Y0001181D01*
X0001610Y0001147D01*
X0001669Y0001117D01*
X0001729Y0001090D01*
X0001791Y0001066D01*
X0001854Y0001046D01*
X0001918Y0001030D01*
X0001983Y0001017D01*
X0002049Y0001007D01*
X0002115Y0001002D01*
X0002181Y0001000D01*
X0365961Y0001000D01*
X0366027Y0001002D01*
X0366093Y0001007D01*
X0366159Y0001017D01*
X0366224Y0001030D01*
X0366288Y0001046D01*
X0366351Y0001066D01*
X0366413Y0001090D01*
X0366473Y0001117D01*
X0366532Y0001147D01*
X0366589Y0001181D01*
X0366644Y0001218D01*
X0366697Y0001258D01*
X0366748Y0001300D01*
X0366796Y0001346D01*
X0366842Y0001394D01*
X0366884Y0001445D01*
X0366924Y0001498D01*
X0366961Y0001553D01*
X0366995Y0001610D01*
X0367025Y0001669D01*
X0367052Y0001729D01*
X0367076Y0001791D01*
X0367096Y0001854D01*
X0367112Y0001918D01*
X0367125Y0001983D01*
X0367135Y0002049D01*
X0367140Y0002115D01*
X0367142Y0002181D01*
X0367142Y0275409D01*
X0367140Y0275475D01*
X0367135Y0275541D01*
X0367125Y0275607D01*
X0367112Y0275672D01*
X0367096Y0275736D01*
X0367076Y0275799D01*
X0367052Y0275861D01*
X0367025Y0275921D01*
X0366995Y0275980D01*
X0366961Y0276037D01*
X0366924Y0276092D01*
X0366884Y0276145D01*
X0366842Y0276196D01*
X0366796Y0276244D01*
X0366748Y0276290D01*
X0366697Y0276332D01*
X0366644Y0276372D01*
X0366589Y0276409D01*
X0366532Y0276443D01*
X0366473Y0276473D01*
X0366413Y0276500D01*
X0366351Y0276524D01*
X0366288Y0276544D01*
X0366224Y0276560D01*
X0366159Y0276573D01*
X0366093Y0276583D01*
X0366027Y0276588D01*
X0365961Y0276590D01*
X0365961Y0276591D02*
X0002181Y0276591D01*
X0002181Y0276590D02*
X0002115Y0276588D01*
X0002049Y0276583D01*
X0001983Y0276573D01*
X0001918Y0276560D01*
X0001854Y0276544D01*
X0001791Y0276524D01*
X0001729Y0276500D01*
X0001669Y0276473D01*
X0001610Y0276443D01*
X0001553Y0276409D01*
X0001498Y0276372D01*
X0001445Y0276332D01*
X0001394Y0276290D01*
X0001346Y0276244D01*
X0001300Y0276196D01*
X0001258Y0276145D01*
X0001218Y0276092D01*
X0001181Y0276037D01*
X0001147Y0275980D01*
X0001117Y0275921D01*
X0001090Y0275861D01*
X0001066Y0275799D01*
X0001046Y0275736D01*
X0001030Y0275672D01*
X0001017Y0275607D01*
X0001007Y0275541D01*
X0001002Y0275475D01*
X0001000Y0275409D01*
X0035842Y0215567D02*
X0035844Y0215615D01*
X0035850Y0215663D01*
X0035860Y0215710D01*
X0035873Y0215756D01*
X0035891Y0215801D01*
X0035911Y0215845D01*
X0035936Y0215887D01*
X0035964Y0215926D01*
X0035994Y0215963D01*
X0036028Y0215997D01*
X0036065Y0216029D01*
X0036103Y0216058D01*
X0036144Y0216083D01*
X0036187Y0216105D01*
X0036232Y0216123D01*
X0036278Y0216137D01*
X0036325Y0216148D01*
X0036373Y0216155D01*
X0036421Y0216158D01*
X0036469Y0216157D01*
X0036517Y0216152D01*
X0036565Y0216143D01*
X0036611Y0216131D01*
X0036656Y0216114D01*
X0036700Y0216094D01*
X0036742Y0216071D01*
X0036782Y0216044D01*
X0036820Y0216014D01*
X0036855Y0215981D01*
X0036887Y0215945D01*
X0036917Y0215907D01*
X0036943Y0215866D01*
X0036965Y0215823D01*
X0036985Y0215779D01*
X0037000Y0215734D01*
X0037012Y0215687D01*
X0037020Y0215639D01*
X0037024Y0215591D01*
X0037024Y0215543D01*
X0037020Y0215495D01*
X0037012Y0215447D01*
X0037000Y0215400D01*
X0036985Y0215355D01*
X0036965Y0215311D01*
X0036943Y0215268D01*
X0036917Y0215227D01*
X0036887Y0215189D01*
X0036855Y0215153D01*
X0036820Y0215120D01*
X0036782Y0215090D01*
X0036742Y0215063D01*
X0036700Y0215040D01*
X0036656Y0215020D01*
X0036611Y0215003D01*
X0036565Y0214991D01*
X0036517Y0214982D01*
X0036469Y0214977D01*
X0036421Y0214976D01*
X0036373Y0214979D01*
X0036325Y0214986D01*
X0036278Y0214997D01*
X0036232Y0215011D01*
X0036187Y0215029D01*
X0036144Y0215051D01*
X0036103Y0215076D01*
X0036065Y0215105D01*
X0036028Y0215137D01*
X0035994Y0215171D01*
X0035964Y0215208D01*
X0035936Y0215247D01*
X0035911Y0215289D01*
X0035891Y0215333D01*
X0035873Y0215378D01*
X0035860Y0215424D01*
X0035850Y0215471D01*
X0035844Y0215519D01*
X0035842Y0215567D01*
X0035842Y0093520D02*
X0035844Y0093568D01*
X0035850Y0093616D01*
X0035860Y0093663D01*
X0035873Y0093709D01*
X0035891Y0093754D01*
X0035911Y0093798D01*
X0035936Y0093840D01*
X0035964Y0093879D01*
X0035994Y0093916D01*
X0036028Y0093950D01*
X0036065Y0093982D01*
X0036103Y0094011D01*
X0036144Y0094036D01*
X0036187Y0094058D01*
X0036232Y0094076D01*
X0036278Y0094090D01*
X0036325Y0094101D01*
X0036373Y0094108D01*
X0036421Y0094111D01*
X0036469Y0094110D01*
X0036517Y0094105D01*
X0036565Y0094096D01*
X0036611Y0094084D01*
X0036656Y0094067D01*
X0036700Y0094047D01*
X0036742Y0094024D01*
X0036782Y0093997D01*
X0036820Y0093967D01*
X0036855Y0093934D01*
X0036887Y0093898D01*
X0036917Y0093860D01*
X0036943Y0093819D01*
X0036965Y0093776D01*
X0036985Y0093732D01*
X0037000Y0093687D01*
X0037012Y0093640D01*
X0037020Y0093592D01*
X0037024Y0093544D01*
X0037024Y0093496D01*
X0037020Y0093448D01*
X0037012Y0093400D01*
X0037000Y0093353D01*
X0036985Y0093308D01*
X0036965Y0093264D01*
X0036943Y0093221D01*
X0036917Y0093180D01*
X0036887Y0093142D01*
X0036855Y0093106D01*
X0036820Y0093073D01*
X0036782Y0093043D01*
X0036742Y0093016D01*
X0036700Y0092993D01*
X0036656Y0092973D01*
X0036611Y0092956D01*
X0036565Y0092944D01*
X0036517Y0092935D01*
X0036469Y0092930D01*
X0036421Y0092929D01*
X0036373Y0092932D01*
X0036325Y0092939D01*
X0036278Y0092950D01*
X0036232Y0092964D01*
X0036187Y0092982D01*
X0036144Y0093004D01*
X0036103Y0093029D01*
X0036065Y0093058D01*
X0036028Y0093090D01*
X0035994Y0093124D01*
X0035964Y0093161D01*
X0035936Y0093200D01*
X0035911Y0093242D01*
X0035891Y0093286D01*
X0035873Y0093331D01*
X0035860Y0093377D01*
X0035850Y0093424D01*
X0035844Y0093472D01*
X0035842Y0093520D01*
X0331118Y0093520D02*
X0331120Y0093568D01*
X0331126Y0093616D01*
X0331136Y0093663D01*
X0331149Y0093709D01*
X0331167Y0093754D01*
X0331187Y0093798D01*
X0331212Y0093840D01*
X0331240Y0093879D01*
X0331270Y0093916D01*
X0331304Y0093950D01*
X0331341Y0093982D01*
X0331379Y0094011D01*
X0331420Y0094036D01*
X0331463Y0094058D01*
X0331508Y0094076D01*
X0331554Y0094090D01*
X0331601Y0094101D01*
X0331649Y0094108D01*
X0331697Y0094111D01*
X0331745Y0094110D01*
X0331793Y0094105D01*
X0331841Y0094096D01*
X0331887Y0094084D01*
X0331932Y0094067D01*
X0331976Y0094047D01*
X0332018Y0094024D01*
X0332058Y0093997D01*
X0332096Y0093967D01*
X0332131Y0093934D01*
X0332163Y0093898D01*
X0332193Y0093860D01*
X0332219Y0093819D01*
X0332241Y0093776D01*
X0332261Y0093732D01*
X0332276Y0093687D01*
X0332288Y0093640D01*
X0332296Y0093592D01*
X0332300Y0093544D01*
X0332300Y0093496D01*
X0332296Y0093448D01*
X0332288Y0093400D01*
X0332276Y0093353D01*
X0332261Y0093308D01*
X0332241Y0093264D01*
X0332219Y0093221D01*
X0332193Y0093180D01*
X0332163Y0093142D01*
X0332131Y0093106D01*
X0332096Y0093073D01*
X0332058Y0093043D01*
X0332018Y0093016D01*
X0331976Y0092993D01*
X0331932Y0092973D01*
X0331887Y0092956D01*
X0331841Y0092944D01*
X0331793Y0092935D01*
X0331745Y0092930D01*
X0331697Y0092929D01*
X0331649Y0092932D01*
X0331601Y0092939D01*
X0331554Y0092950D01*
X0331508Y0092964D01*
X0331463Y0092982D01*
X0331420Y0093004D01*
X0331379Y0093029D01*
X0331341Y0093058D01*
X0331304Y0093090D01*
X0331270Y0093124D01*
X0331240Y0093161D01*
X0331212Y0093200D01*
X0331187Y0093242D01*
X0331167Y0093286D01*
X0331149Y0093331D01*
X0331136Y0093377D01*
X0331126Y0093424D01*
X0331120Y0093472D01*
X0331118Y0093520D01*
X0331118Y0215567D02*
X0331120Y0215615D01*
X0331126Y0215663D01*
X0331136Y0215710D01*
X0331149Y0215756D01*
X0331167Y0215801D01*
X0331187Y0215845D01*
X0331212Y0215887D01*
X0331240Y0215926D01*
X0331270Y0215963D01*
X0331304Y0215997D01*
X0331341Y0216029D01*
X0331379Y0216058D01*
X0331420Y0216083D01*
X0331463Y0216105D01*
X0331508Y0216123D01*
X0331554Y0216137D01*
X0331601Y0216148D01*
X0331649Y0216155D01*
X0331697Y0216158D01*
X0331745Y0216157D01*
X0331793Y0216152D01*
X0331841Y0216143D01*
X0331887Y0216131D01*
X0331932Y0216114D01*
X0331976Y0216094D01*
X0332018Y0216071D01*
X0332058Y0216044D01*
X0332096Y0216014D01*
X0332131Y0215981D01*
X0332163Y0215945D01*
X0332193Y0215907D01*
X0332219Y0215866D01*
X0332241Y0215823D01*
X0332261Y0215779D01*
X0332276Y0215734D01*
X0332288Y0215687D01*
X0332296Y0215639D01*
X0332300Y0215591D01*
X0332300Y0215543D01*
X0332296Y0215495D01*
X0332288Y0215447D01*
X0332276Y0215400D01*
X0332261Y0215355D01*
X0332241Y0215311D01*
X0332219Y0215268D01*
X0332193Y0215227D01*
X0332163Y0215189D01*
X0332131Y0215153D01*
X0332096Y0215120D01*
X0332058Y0215090D01*
X0332018Y0215063D01*
X0331976Y0215040D01*
X0331932Y0215020D01*
X0331887Y0215003D01*
X0331841Y0214991D01*
X0331793Y0214982D01*
X0331745Y0214977D01*
X0331697Y0214976D01*
X0331649Y0214979D01*
X0331601Y0214986D01*
X0331554Y0214997D01*
X0331508Y0215011D01*
X0331463Y0215029D01*
X0331420Y0215051D01*
X0331379Y0215076D01*
X0331341Y0215105D01*
X0331304Y0215137D01*
X0331270Y0215171D01*
X0331240Y0215208D01*
X0331212Y0215247D01*
X0331187Y0215289D01*
X0331167Y0215333D01*
X0331149Y0215378D01*
X0331136Y0215424D01*
X0331126Y0215471D01*
X0331120Y0215519D01*
X0331118Y0215567D01*
D12*
X0179584Y0208242D02*
X0179584Y0202337D01*
X0175647Y0202337D02*
X0175647Y0208242D01*
X0177616Y0206274D01*
X0179584Y0208242D01*
X0173138Y0205290D02*
X0173138Y0203322D01*
X0172154Y0202337D01*
X0170186Y0202337D01*
X0169202Y0203322D01*
X0169202Y0205290D01*
X0170186Y0206274D01*
X0172154Y0206274D01*
X0173138Y0205290D01*
X0166693Y0205290D02*
X0165709Y0206274D01*
X0162756Y0206274D01*
X0162756Y0208242D02*
X0162756Y0202337D01*
X0165709Y0202337D01*
X0166693Y0203322D01*
X0166693Y0205290D01*
X0160247Y0205290D02*
X0156311Y0205290D01*
X0156311Y0206274D02*
X0156311Y0202337D01*
X0153802Y0202337D02*
X0151834Y0202337D01*
X0152818Y0202337D02*
X0152818Y0206274D01*
X0153802Y0206274D01*
X0152818Y0208242D02*
X0152818Y0209227D01*
X0149505Y0206274D02*
X0149505Y0202337D01*
X0149505Y0204306D02*
X0147537Y0206274D01*
X0146552Y0206274D01*
X0137688Y0206274D02*
X0137688Y0202337D01*
X0137688Y0205290D02*
X0133751Y0205290D01*
X0133751Y0206274D02*
X0133751Y0202337D01*
X0129274Y0202337D02*
X0127306Y0206274D01*
X0124797Y0206274D02*
X0123813Y0206274D01*
X0123813Y0202337D01*
X0124797Y0202337D02*
X0122829Y0202337D01*
X0120500Y0203322D02*
X0119516Y0202337D01*
X0117548Y0202337D01*
X0116563Y0203322D01*
X0116563Y0205290D01*
X0117548Y0206274D01*
X0119516Y0206274D01*
X0120500Y0205290D01*
X0120500Y0203322D01*
X0123813Y0208242D02*
X0123813Y0209227D01*
X0131243Y0206274D02*
X0129274Y0202337D01*
X0133751Y0206274D02*
X0135720Y0208242D01*
X0137688Y0206274D01*
X0156311Y0206274D02*
X0158279Y0208242D01*
X0160247Y0206274D01*
X0160247Y0202337D01*
X0159263Y0184620D02*
X0157295Y0184620D01*
X0156311Y0183636D01*
X0156311Y0182652D01*
X0160247Y0178715D01*
X0156311Y0178715D01*
X0153802Y0179700D02*
X0149865Y0183636D01*
X0149865Y0179700D01*
X0150849Y0178715D01*
X0152818Y0178715D01*
X0153802Y0179700D01*
X0153802Y0183636D01*
X0152818Y0184620D01*
X0150849Y0184620D01*
X0149865Y0183636D01*
X0147356Y0182652D02*
X0145388Y0184620D01*
X0145388Y0178715D01*
X0147356Y0178715D02*
X0143420Y0178715D01*
X0140911Y0179700D02*
X0139927Y0178715D01*
X0137958Y0178715D01*
X0136974Y0179700D01*
X0136974Y0180684D01*
X0137958Y0181668D01*
X0140911Y0181668D01*
X0140911Y0179700D01*
X0140911Y0181668D02*
X0138943Y0183636D01*
X0136974Y0184620D01*
X0159263Y0184620D02*
X0160247Y0183636D01*
X0162756Y0184620D02*
X0166693Y0178715D01*
X0169202Y0179700D02*
X0169202Y0183636D01*
X0170186Y0184620D01*
X0172154Y0184620D01*
X0173138Y0183636D01*
X0173138Y0182652D01*
X0172154Y0181668D01*
X0169202Y0181668D01*
X0169202Y0179700D02*
X0170186Y0178715D01*
X0172154Y0178715D01*
X0173138Y0179700D01*
X0175647Y0179700D02*
X0176631Y0178715D01*
X0178600Y0178715D01*
X0179584Y0179700D01*
X0175647Y0183636D01*
X0175647Y0179700D01*
X0179584Y0179700D02*
X0179584Y0183636D01*
X0178600Y0184620D01*
X0176631Y0184620D01*
X0175647Y0183636D01*
X0114055Y0202337D02*
X0114055Y0206274D01*
X0111102Y0206274D01*
X0110118Y0205290D01*
X0110118Y0202337D01*
X0107609Y0202337D02*
X0105641Y0202337D01*
X0106625Y0202337D02*
X0106625Y0206274D01*
X0107609Y0206274D01*
X0106625Y0208242D02*
X0106625Y0209227D01*
X0103312Y0205290D02*
X0102328Y0206274D01*
X0099375Y0206274D01*
X0096867Y0205290D02*
X0095882Y0206274D01*
X0092930Y0206274D01*
X0093914Y0204306D02*
X0095882Y0204306D01*
X0096867Y0205290D01*
X0096867Y0202337D02*
X0093914Y0202337D01*
X0092930Y0203322D01*
X0093914Y0204306D01*
X0099375Y0202337D02*
X0102328Y0202337D01*
X0103312Y0203322D01*
X0103312Y0205290D01*
X0096367Y0184620D02*
X0096367Y0178715D01*
X0098335Y0178715D02*
X0094399Y0178715D01*
X0091890Y0178715D02*
X0090906Y0178715D01*
X0090906Y0179700D01*
X0091890Y0179700D01*
X0091890Y0178715D01*
X0088667Y0178715D02*
X0084730Y0178715D01*
X0086699Y0178715D02*
X0086699Y0184620D01*
X0088667Y0182652D01*
X0096367Y0184620D02*
X0098335Y0182652D01*
X0100844Y0182652D02*
X0102812Y0178715D01*
X0104781Y0182652D01*
D13*
X0104256Y0190626D02*
X0100603Y0190626D01*
X0099385Y0191844D01*
X0099385Y0196715D01*
X0100603Y0197933D01*
X0104256Y0197933D01*
X0104256Y0190626D01*
X0107304Y0191844D02*
X0108521Y0190626D01*
X0110957Y0190626D01*
X0112174Y0191844D01*
X0112174Y0196715D01*
X0110957Y0197933D01*
X0108521Y0197933D01*
X0107304Y0196715D01*
X0115222Y0190626D02*
X0120093Y0190626D01*
X0120093Y0197933D01*
X0131060Y0195497D02*
X0134713Y0195497D01*
X0135931Y0194279D01*
X0135931Y0191844D01*
X0134713Y0190626D01*
X0131060Y0190626D01*
X0138774Y0190626D02*
X0141210Y0190626D01*
X0139992Y0190626D02*
X0139992Y0195497D01*
X0141210Y0195497D01*
X0139992Y0197933D02*
X0139992Y0199150D01*
X0144258Y0194279D02*
X0145475Y0195497D01*
X0147911Y0195497D01*
X0149129Y0194279D01*
X0152177Y0194279D02*
X0153394Y0195497D01*
X0157047Y0195497D01*
X0157047Y0188191D01*
X0157047Y0190626D02*
X0153394Y0190626D01*
X0152177Y0191844D01*
X0152177Y0194279D01*
X0149129Y0190626D02*
X0149129Y0197933D01*
X0144258Y0194279D02*
X0144258Y0190626D01*
X0160095Y0190626D02*
X0163748Y0190626D01*
X0164966Y0191844D01*
X0163748Y0193062D01*
X0160095Y0193062D01*
X0160095Y0194279D02*
X0160095Y0190626D01*
X0160095Y0194279D02*
X0161313Y0195497D01*
X0163748Y0195497D01*
X0167912Y0195497D02*
X0169130Y0195497D01*
X0171565Y0193062D01*
X0171565Y0195497D02*
X0171565Y0190626D01*
X0174613Y0191844D02*
X0174613Y0194279D01*
X0177048Y0194279D01*
X0174613Y0191844D02*
X0175831Y0190626D01*
X0178266Y0190626D01*
X0179484Y0191844D01*
X0179484Y0196715D01*
X0178266Y0197933D01*
X0175831Y0197933D01*
X0174613Y0196715D01*
X0088418Y0197933D02*
X0088418Y0190626D01*
X0083547Y0190626D02*
X0083547Y0197933D01*
X0085983Y0195497D01*
X0088418Y0197933D01*
X0080499Y0194279D02*
X0080499Y0191844D01*
X0079282Y0190626D01*
X0076846Y0190626D01*
X0075629Y0191844D01*
X0075629Y0194279D01*
X0076846Y0195497D01*
X0079282Y0195497D01*
X0080499Y0194279D01*
X0072581Y0194279D02*
X0071363Y0195497D01*
X0067710Y0195497D01*
X0067710Y0197933D02*
X0067710Y0190626D01*
X0071363Y0190626D01*
X0072581Y0191844D01*
X0072581Y0194279D01*
X0064662Y0195497D02*
X0064662Y0191844D01*
X0063444Y0190626D01*
X0059791Y0190626D01*
X0059791Y0195497D01*
X0056743Y0197933D02*
X0055525Y0197933D01*
X0055525Y0190626D01*
X0054308Y0190626D02*
X0056743Y0190626D01*
X0051464Y0191844D02*
X0050246Y0190626D01*
X0047811Y0190626D01*
X0046593Y0193062D02*
X0051464Y0193062D01*
X0051464Y0194279D02*
X0050246Y0195497D01*
X0047811Y0195497D01*
X0046593Y0194279D01*
X0046593Y0193062D01*
X0051464Y0191844D02*
X0051464Y0194279D01*
D14*
X0205134Y0198638D02*
X0207102Y0198638D01*
X0207102Y0196669D01*
X0266157Y0196669D01*
X0266157Y0198638D01*
X0264189Y0198638D01*
X0264189Y0200606D01*
X0266157Y0200606D01*
X0266157Y0226591D01*
X0207102Y0226591D01*
X0207102Y0200606D01*
X0205134Y0200606D01*
X0205134Y0198638D01*
X0216065Y0199819D02*
X0216067Y0199878D01*
X0216073Y0199936D01*
X0216083Y0199994D01*
X0216096Y0200051D01*
X0216114Y0200108D01*
X0216135Y0200163D01*
X0216160Y0200216D01*
X0216188Y0200267D01*
X0216219Y0200317D01*
X0216254Y0200364D01*
X0216292Y0200409D01*
X0216333Y0200452D01*
X0216377Y0200491D01*
X0216423Y0200527D01*
X0216471Y0200561D01*
X0216522Y0200591D01*
X0216575Y0200617D01*
X0216629Y0200640D01*
X0216684Y0200659D01*
X0216741Y0200675D01*
X0216799Y0200687D01*
X0216857Y0200695D01*
X0216916Y0200699D01*
X0216974Y0200699D01*
X0217033Y0200695D01*
X0217091Y0200687D01*
X0217149Y0200675D01*
X0217206Y0200659D01*
X0217261Y0200640D01*
X0217315Y0200617D01*
X0217368Y0200591D01*
X0217419Y0200561D01*
X0217467Y0200527D01*
X0217513Y0200491D01*
X0217557Y0200452D01*
X0217598Y0200409D01*
X0217636Y0200364D01*
X0217671Y0200317D01*
X0217702Y0200267D01*
X0217730Y0200216D01*
X0217755Y0200163D01*
X0217776Y0200108D01*
X0217794Y0200051D01*
X0217807Y0199994D01*
X0217817Y0199936D01*
X0217823Y0199878D01*
X0217825Y0199819D01*
X0217823Y0199760D01*
X0217817Y0199702D01*
X0217807Y0199644D01*
X0217794Y0199587D01*
X0217776Y0199530D01*
X0217755Y0199475D01*
X0217730Y0199422D01*
X0217702Y0199371D01*
X0217671Y0199321D01*
X0217636Y0199274D01*
X0217598Y0199229D01*
X0217557Y0199186D01*
X0217513Y0199147D01*
X0217467Y0199111D01*
X0217419Y0199077D01*
X0217368Y0199047D01*
X0217315Y0199021D01*
X0217261Y0198998D01*
X0217206Y0198979D01*
X0217149Y0198963D01*
X0217091Y0198951D01*
X0217033Y0198943D01*
X0216974Y0198939D01*
X0216916Y0198939D01*
X0216857Y0198943D01*
X0216799Y0198951D01*
X0216741Y0198963D01*
X0216684Y0198979D01*
X0216629Y0198998D01*
X0216575Y0199021D01*
X0216522Y0199047D01*
X0216471Y0199077D01*
X0216423Y0199111D01*
X0216377Y0199147D01*
X0216333Y0199186D01*
X0216292Y0199229D01*
X0216254Y0199274D01*
X0216219Y0199321D01*
X0216188Y0199371D01*
X0216160Y0199422D01*
X0216135Y0199475D01*
X0216114Y0199530D01*
X0216096Y0199587D01*
X0216083Y0199644D01*
X0216073Y0199702D01*
X0216067Y0199760D01*
X0216065Y0199819D01*
X0235750Y0199819D02*
X0235752Y0199878D01*
X0235758Y0199936D01*
X0235768Y0199994D01*
X0235781Y0200051D01*
X0235799Y0200108D01*
X0235820Y0200163D01*
X0235845Y0200216D01*
X0235873Y0200267D01*
X0235904Y0200317D01*
X0235939Y0200364D01*
X0235977Y0200409D01*
X0236018Y0200452D01*
X0236062Y0200491D01*
X0236108Y0200527D01*
X0236156Y0200561D01*
X0236207Y0200591D01*
X0236260Y0200617D01*
X0236314Y0200640D01*
X0236369Y0200659D01*
X0236426Y0200675D01*
X0236484Y0200687D01*
X0236542Y0200695D01*
X0236601Y0200699D01*
X0236659Y0200699D01*
X0236718Y0200695D01*
X0236776Y0200687D01*
X0236834Y0200675D01*
X0236891Y0200659D01*
X0236946Y0200640D01*
X0237000Y0200617D01*
X0237053Y0200591D01*
X0237104Y0200561D01*
X0237152Y0200527D01*
X0237198Y0200491D01*
X0237242Y0200452D01*
X0237283Y0200409D01*
X0237321Y0200364D01*
X0237356Y0200317D01*
X0237387Y0200267D01*
X0237415Y0200216D01*
X0237440Y0200163D01*
X0237461Y0200108D01*
X0237479Y0200051D01*
X0237492Y0199994D01*
X0237502Y0199936D01*
X0237508Y0199878D01*
X0237510Y0199819D01*
X0237508Y0199760D01*
X0237502Y0199702D01*
X0237492Y0199644D01*
X0237479Y0199587D01*
X0237461Y0199530D01*
X0237440Y0199475D01*
X0237415Y0199422D01*
X0237387Y0199371D01*
X0237356Y0199321D01*
X0237321Y0199274D01*
X0237283Y0199229D01*
X0237242Y0199186D01*
X0237198Y0199147D01*
X0237152Y0199111D01*
X0237104Y0199077D01*
X0237053Y0199047D01*
X0237000Y0199021D01*
X0236946Y0198998D01*
X0236891Y0198979D01*
X0236834Y0198963D01*
X0236776Y0198951D01*
X0236718Y0198943D01*
X0236659Y0198939D01*
X0236601Y0198939D01*
X0236542Y0198943D01*
X0236484Y0198951D01*
X0236426Y0198963D01*
X0236369Y0198979D01*
X0236314Y0198998D01*
X0236260Y0199021D01*
X0236207Y0199047D01*
X0236156Y0199077D01*
X0236108Y0199111D01*
X0236062Y0199147D01*
X0236018Y0199186D01*
X0235977Y0199229D01*
X0235939Y0199274D01*
X0235904Y0199321D01*
X0235873Y0199371D01*
X0235845Y0199422D01*
X0235820Y0199475D01*
X0235799Y0199530D01*
X0235781Y0199587D01*
X0235768Y0199644D01*
X0235758Y0199702D01*
X0235752Y0199760D01*
X0235750Y0199819D01*
X0255435Y0199819D02*
X0255437Y0199878D01*
X0255443Y0199936D01*
X0255453Y0199994D01*
X0255466Y0200051D01*
X0255484Y0200108D01*
X0255505Y0200163D01*
X0255530Y0200216D01*
X0255558Y0200267D01*
X0255589Y0200317D01*
X0255624Y0200364D01*
X0255662Y0200409D01*
X0255703Y0200452D01*
X0255747Y0200491D01*
X0255793Y0200527D01*
X0255841Y0200561D01*
X0255892Y0200591D01*
X0255945Y0200617D01*
X0255999Y0200640D01*
X0256054Y0200659D01*
X0256111Y0200675D01*
X0256169Y0200687D01*
X0256227Y0200695D01*
X0256286Y0200699D01*
X0256344Y0200699D01*
X0256403Y0200695D01*
X0256461Y0200687D01*
X0256519Y0200675D01*
X0256576Y0200659D01*
X0256631Y0200640D01*
X0256685Y0200617D01*
X0256738Y0200591D01*
X0256789Y0200561D01*
X0256837Y0200527D01*
X0256883Y0200491D01*
X0256927Y0200452D01*
X0256968Y0200409D01*
X0257006Y0200364D01*
X0257041Y0200317D01*
X0257072Y0200267D01*
X0257100Y0200216D01*
X0257125Y0200163D01*
X0257146Y0200108D01*
X0257164Y0200051D01*
X0257177Y0199994D01*
X0257187Y0199936D01*
X0257193Y0199878D01*
X0257195Y0199819D01*
X0257193Y0199760D01*
X0257187Y0199702D01*
X0257177Y0199644D01*
X0257164Y0199587D01*
X0257146Y0199530D01*
X0257125Y0199475D01*
X0257100Y0199422D01*
X0257072Y0199371D01*
X0257041Y0199321D01*
X0257006Y0199274D01*
X0256968Y0199229D01*
X0256927Y0199186D01*
X0256883Y0199147D01*
X0256837Y0199111D01*
X0256789Y0199077D01*
X0256738Y0199047D01*
X0256685Y0199021D01*
X0256631Y0198998D01*
X0256576Y0198979D01*
X0256519Y0198963D01*
X0256461Y0198951D01*
X0256403Y0198943D01*
X0256344Y0198939D01*
X0256286Y0198939D01*
X0256227Y0198943D01*
X0256169Y0198951D01*
X0256111Y0198963D01*
X0256054Y0198979D01*
X0255999Y0198998D01*
X0255945Y0199021D01*
X0255892Y0199047D01*
X0255841Y0199077D01*
X0255793Y0199111D01*
X0255747Y0199147D01*
X0255703Y0199186D01*
X0255662Y0199229D01*
X0255624Y0199274D01*
X0255589Y0199321D01*
X0255558Y0199371D01*
X0255530Y0199422D01*
X0255505Y0199475D01*
X0255484Y0199530D01*
X0255466Y0199587D01*
X0255453Y0199644D01*
X0255443Y0199702D01*
X0255437Y0199760D01*
X0255435Y0199819D01*
X0264189Y0200606D02*
X0264189Y0198638D01*
X0266157Y0198638D01*
X0266157Y0196669D01*
X0325213Y0196669D01*
X0325213Y0198638D01*
X0323244Y0198638D01*
X0323244Y0200606D01*
X0325213Y0200606D01*
X0325213Y0226591D01*
X0266157Y0226591D01*
X0266157Y0200606D01*
X0264189Y0200606D01*
X0275120Y0199819D02*
X0275122Y0199878D01*
X0275128Y0199936D01*
X0275138Y0199994D01*
X0275151Y0200051D01*
X0275169Y0200108D01*
X0275190Y0200163D01*
X0275215Y0200216D01*
X0275243Y0200267D01*
X0275274Y0200317D01*
X0275309Y0200364D01*
X0275347Y0200409D01*
X0275388Y0200452D01*
X0275432Y0200491D01*
X0275478Y0200527D01*
X0275526Y0200561D01*
X0275577Y0200591D01*
X0275630Y0200617D01*
X0275684Y0200640D01*
X0275739Y0200659D01*
X0275796Y0200675D01*
X0275854Y0200687D01*
X0275912Y0200695D01*
X0275971Y0200699D01*
X0276029Y0200699D01*
X0276088Y0200695D01*
X0276146Y0200687D01*
X0276204Y0200675D01*
X0276261Y0200659D01*
X0276316Y0200640D01*
X0276370Y0200617D01*
X0276423Y0200591D01*
X0276474Y0200561D01*
X0276522Y0200527D01*
X0276568Y0200491D01*
X0276612Y0200452D01*
X0276653Y0200409D01*
X0276691Y0200364D01*
X0276726Y0200317D01*
X0276757Y0200267D01*
X0276785Y0200216D01*
X0276810Y0200163D01*
X0276831Y0200108D01*
X0276849Y0200051D01*
X0276862Y0199994D01*
X0276872Y0199936D01*
X0276878Y0199878D01*
X0276880Y0199819D01*
X0276878Y0199760D01*
X0276872Y0199702D01*
X0276862Y0199644D01*
X0276849Y0199587D01*
X0276831Y0199530D01*
X0276810Y0199475D01*
X0276785Y0199422D01*
X0276757Y0199371D01*
X0276726Y0199321D01*
X0276691Y0199274D01*
X0276653Y0199229D01*
X0276612Y0199186D01*
X0276568Y0199147D01*
X0276522Y0199111D01*
X0276474Y0199077D01*
X0276423Y0199047D01*
X0276370Y0199021D01*
X0276316Y0198998D01*
X0276261Y0198979D01*
X0276204Y0198963D01*
X0276146Y0198951D01*
X0276088Y0198943D01*
X0276029Y0198939D01*
X0275971Y0198939D01*
X0275912Y0198943D01*
X0275854Y0198951D01*
X0275796Y0198963D01*
X0275739Y0198979D01*
X0275684Y0198998D01*
X0275630Y0199021D01*
X0275577Y0199047D01*
X0275526Y0199077D01*
X0275478Y0199111D01*
X0275432Y0199147D01*
X0275388Y0199186D01*
X0275347Y0199229D01*
X0275309Y0199274D01*
X0275274Y0199321D01*
X0275243Y0199371D01*
X0275215Y0199422D01*
X0275190Y0199475D01*
X0275169Y0199530D01*
X0275151Y0199587D01*
X0275138Y0199644D01*
X0275128Y0199702D01*
X0275122Y0199760D01*
X0275120Y0199819D01*
X0294805Y0199819D02*
X0294807Y0199878D01*
X0294813Y0199936D01*
X0294823Y0199994D01*
X0294836Y0200051D01*
X0294854Y0200108D01*
X0294875Y0200163D01*
X0294900Y0200216D01*
X0294928Y0200267D01*
X0294959Y0200317D01*
X0294994Y0200364D01*
X0295032Y0200409D01*
X0295073Y0200452D01*
X0295117Y0200491D01*
X0295163Y0200527D01*
X0295211Y0200561D01*
X0295262Y0200591D01*
X0295315Y0200617D01*
X0295369Y0200640D01*
X0295424Y0200659D01*
X0295481Y0200675D01*
X0295539Y0200687D01*
X0295597Y0200695D01*
X0295656Y0200699D01*
X0295714Y0200699D01*
X0295773Y0200695D01*
X0295831Y0200687D01*
X0295889Y0200675D01*
X0295946Y0200659D01*
X0296001Y0200640D01*
X0296055Y0200617D01*
X0296108Y0200591D01*
X0296159Y0200561D01*
X0296207Y0200527D01*
X0296253Y0200491D01*
X0296297Y0200452D01*
X0296338Y0200409D01*
X0296376Y0200364D01*
X0296411Y0200317D01*
X0296442Y0200267D01*
X0296470Y0200216D01*
X0296495Y0200163D01*
X0296516Y0200108D01*
X0296534Y0200051D01*
X0296547Y0199994D01*
X0296557Y0199936D01*
X0296563Y0199878D01*
X0296565Y0199819D01*
X0296563Y0199760D01*
X0296557Y0199702D01*
X0296547Y0199644D01*
X0296534Y0199587D01*
X0296516Y0199530D01*
X0296495Y0199475D01*
X0296470Y0199422D01*
X0296442Y0199371D01*
X0296411Y0199321D01*
X0296376Y0199274D01*
X0296338Y0199229D01*
X0296297Y0199186D01*
X0296253Y0199147D01*
X0296207Y0199111D01*
X0296159Y0199077D01*
X0296108Y0199047D01*
X0296055Y0199021D01*
X0296001Y0198998D01*
X0295946Y0198979D01*
X0295889Y0198963D01*
X0295831Y0198951D01*
X0295773Y0198943D01*
X0295714Y0198939D01*
X0295656Y0198939D01*
X0295597Y0198943D01*
X0295539Y0198951D01*
X0295481Y0198963D01*
X0295424Y0198979D01*
X0295369Y0198998D01*
X0295315Y0199021D01*
X0295262Y0199047D01*
X0295211Y0199077D01*
X0295163Y0199111D01*
X0295117Y0199147D01*
X0295073Y0199186D01*
X0295032Y0199229D01*
X0294994Y0199274D01*
X0294959Y0199321D01*
X0294928Y0199371D01*
X0294900Y0199422D01*
X0294875Y0199475D01*
X0294854Y0199530D01*
X0294836Y0199587D01*
X0294823Y0199644D01*
X0294813Y0199702D01*
X0294807Y0199760D01*
X0294805Y0199819D01*
X0314490Y0199819D02*
X0314492Y0199878D01*
X0314498Y0199936D01*
X0314508Y0199994D01*
X0314521Y0200051D01*
X0314539Y0200108D01*
X0314560Y0200163D01*
X0314585Y0200216D01*
X0314613Y0200267D01*
X0314644Y0200317D01*
X0314679Y0200364D01*
X0314717Y0200409D01*
X0314758Y0200452D01*
X0314802Y0200491D01*
X0314848Y0200527D01*
X0314896Y0200561D01*
X0314947Y0200591D01*
X0315000Y0200617D01*
X0315054Y0200640D01*
X0315109Y0200659D01*
X0315166Y0200675D01*
X0315224Y0200687D01*
X0315282Y0200695D01*
X0315341Y0200699D01*
X0315399Y0200699D01*
X0315458Y0200695D01*
X0315516Y0200687D01*
X0315574Y0200675D01*
X0315631Y0200659D01*
X0315686Y0200640D01*
X0315740Y0200617D01*
X0315793Y0200591D01*
X0315844Y0200561D01*
X0315892Y0200527D01*
X0315938Y0200491D01*
X0315982Y0200452D01*
X0316023Y0200409D01*
X0316061Y0200364D01*
X0316096Y0200317D01*
X0316127Y0200267D01*
X0316155Y0200216D01*
X0316180Y0200163D01*
X0316201Y0200108D01*
X0316219Y0200051D01*
X0316232Y0199994D01*
X0316242Y0199936D01*
X0316248Y0199878D01*
X0316250Y0199819D01*
X0316248Y0199760D01*
X0316242Y0199702D01*
X0316232Y0199644D01*
X0316219Y0199587D01*
X0316201Y0199530D01*
X0316180Y0199475D01*
X0316155Y0199422D01*
X0316127Y0199371D01*
X0316096Y0199321D01*
X0316061Y0199274D01*
X0316023Y0199229D01*
X0315982Y0199186D01*
X0315938Y0199147D01*
X0315892Y0199111D01*
X0315844Y0199077D01*
X0315793Y0199047D01*
X0315740Y0199021D01*
X0315686Y0198998D01*
X0315631Y0198979D01*
X0315574Y0198963D01*
X0315516Y0198951D01*
X0315458Y0198943D01*
X0315399Y0198939D01*
X0315341Y0198939D01*
X0315282Y0198943D01*
X0315224Y0198951D01*
X0315166Y0198963D01*
X0315109Y0198979D01*
X0315054Y0198998D01*
X0315000Y0199021D01*
X0314947Y0199047D01*
X0314896Y0199077D01*
X0314848Y0199111D01*
X0314802Y0199147D01*
X0314758Y0199186D01*
X0314717Y0199229D01*
X0314679Y0199274D01*
X0314644Y0199321D01*
X0314613Y0199371D01*
X0314585Y0199422D01*
X0314560Y0199475D01*
X0314539Y0199530D01*
X0314521Y0199587D01*
X0314508Y0199644D01*
X0314498Y0199702D01*
X0314492Y0199760D01*
X0314490Y0199819D01*
M02*
